<mxfile host="app.diagrams.net" modified="2023-04-09T13:12:12.568Z" agent="Mozilla/5.0 (Macintosh; Intel Mac OS X 10_15_7) AppleWebKit/605.1.15 (KHTML, like Gecko) Version/16.3 Safari/605.1.15" etag="jIR9WFttMSuqwZkKmVC-" version="21.1.5" type="github">
  <diagram name="Page-1" id="BmPKDK8v9zG8-tpcR2I4">
    <mxGraphModel dx="1434" dy="685" grid="1" gridSize="10" guides="1" tooltips="1" connect="1" arrows="1" fold="1" page="1" pageScale="1" pageWidth="827" pageHeight="1169" math="0" shadow="0">
      <root>
        <mxCell id="0" />
        <mxCell id="1" parent="0" />
        <mxCell id="1hGbe3STKy7xls45Atfi-2" value="" style="endArrow=none;html=1;rounded=0;" edge="1" parent="1">
          <mxGeometry width="50" height="50" relative="1" as="geometry">
            <mxPoint x="200" y="120" as="sourcePoint" />
            <mxPoint x="600" y="120" as="targetPoint" />
          </mxGeometry>
        </mxCell>
        <mxCell id="1hGbe3STKy7xls45Atfi-4" value="&lt;font style=&quot;font-size: 13px;&quot;&gt;Vbatterie = 11,1 V&lt;/font&gt;" style="text;html=1;strokeColor=none;fillColor=none;align=center;verticalAlign=middle;whiteSpace=wrap;rounded=0;" vertex="1" parent="1">
          <mxGeometry x="304" y="90" width="150" height="30" as="geometry" />
        </mxCell>
        <mxCell id="1hGbe3STKy7xls45Atfi-7" style="edgeStyle=orthogonalEdgeStyle;rounded=0;orthogonalLoop=1;jettySize=auto;html=1;entryX=0.5;entryY=0;entryDx=0;entryDy=0;" edge="1" parent="1" target="1hGbe3STKy7xls45Atfi-8">
          <mxGeometry relative="1" as="geometry">
            <mxPoint x="401" y="272" as="targetPoint" />
            <mxPoint x="401" y="232" as="sourcePoint" />
            <Array as="points">
              <mxPoint x="401" y="250" />
              <mxPoint x="401" y="250" />
            </Array>
          </mxGeometry>
        </mxCell>
        <mxCell id="1hGbe3STKy7xls45Atfi-13" style="edgeStyle=orthogonalEdgeStyle;rounded=0;orthogonalLoop=1;jettySize=auto;html=1;exitX=0.645;exitY=1;exitDx=0;exitDy=0;exitPerimeter=0;" edge="1" parent="1" source="1hGbe3STKy7xls45Atfi-4" target="1hGbe3STKy7xls45Atfi-5">
          <mxGeometry relative="1" as="geometry" />
        </mxCell>
        <mxCell id="1hGbe3STKy7xls45Atfi-15" value="" style="edgeStyle=orthogonalEdgeStyle;rounded=0;orthogonalLoop=1;jettySize=auto;html=1;" edge="1" parent="1" source="1hGbe3STKy7xls45Atfi-5" target="1hGbe3STKy7xls45Atfi-14">
          <mxGeometry relative="1" as="geometry" />
        </mxCell>
        <mxCell id="1hGbe3STKy7xls45Atfi-5" value="LDO&lt;br&gt;3,3 V" style="rounded=0;whiteSpace=wrap;html=1;" vertex="1" parent="1">
          <mxGeometry x="376" y="192" width="50" height="40" as="geometry" />
        </mxCell>
        <mxCell id="1hGbe3STKy7xls45Atfi-8" value="Microcontrolleur&lt;br&gt;STM 32" style="rounded=0;whiteSpace=wrap;html=1;" vertex="1" parent="1">
          <mxGeometry x="341" y="272" width="120" height="70" as="geometry" />
        </mxCell>
        <mxCell id="1hGbe3STKy7xls45Atfi-10" style="edgeStyle=orthogonalEdgeStyle;rounded=0;orthogonalLoop=1;jettySize=auto;html=1;entryX=0;entryY=0.75;entryDx=0;entryDy=0;" edge="1" parent="1" source="1hGbe3STKy7xls45Atfi-9" target="1hGbe3STKy7xls45Atfi-8">
          <mxGeometry relative="1" as="geometry" />
        </mxCell>
        <mxCell id="1hGbe3STKy7xls45Atfi-9" value="Sonde de programmation" style="rounded=0;whiteSpace=wrap;html=1;" vertex="1" parent="1">
          <mxGeometry x="221" y="390" width="120" height="60" as="geometry" />
        </mxCell>
        <mxCell id="1hGbe3STKy7xls45Atfi-14" value="Capteurs" style="whiteSpace=wrap;html=1;rounded=0;" vertex="1" parent="1">
          <mxGeometry x="80" y="260" width="110" height="40" as="geometry" />
        </mxCell>
      </root>
    </mxGraphModel>
  </diagram>
</mxfile>
